<svg width="215.868042" height="49.000000" viewBox="0 0 215.868 49" fill="none" xmlns="http://www.w3.org/2000/svg" xmlns:xlink="http://www.w3.org/1999/xlink">
	<desc>
			Created with Pixso.
	</desc>
	<defs>
		<clipPath id="clip72_13">
			<rect id="Frame 1543" width="55.000000" height="49.000000" fill="white" fill-opacity="0"/>
		</clipPath>
	</defs>
	<g clip-path="url(#clip72_13)">
		<path id="Vector" d="M49 46L6 46L27.5 5L49 46Z" stroke="#000000" stroke-opacity="1.000000" stroke-width="3.000000"/>
		<path id="Vector" d="M55 49L0 49L27.5 0L55 49Z" stroke="#000000" stroke-opacity="1.000000" stroke-width="1.000000"/>
		<path id="Vector" d="M37.32 27.67C39.74 29.24 41.04 31.25 40.99 33.28C40.95 35.31 39.57 37.26 37.09 38.73C34.61 40.18 31.16 41.07 27.33 40.99C23.49 40.91 20.08 39.88 17.67 38.32C15.25 36.75 13.95 34.74 14 32.71C14.04 30.68 15.42 28.73 17.9 27.26C20.38 25.81 23.83 24.92 27.66 25C31.5 25.08 34.91 26.11 37.32 27.67Z" stroke="#000000" stroke-opacity="1.000000" stroke-width="3.000000"/>
	</g>
	<path id="Vector" d="M70 30.04C70.11 30.04 70.22 29.92 70.33 29.7C70.44 29.48 70.5 29.11 70.5 28.6L70.5 17.08C70.5 16.56 70.44 16.2 70.33 16C70.22 15.77 70.11 15.65 70 15.64L77.53 15.64C78.96 15.64 80.14 15.77 81.08 16.04C82.04 16.32 82.81 16.69 83.39 17.17C83.98 17.65 84.43 18.2 84.73 18.83C85.04 19.44 85.24 20.08 85.33 20.77C85.44 21.46 85.5 22.16 85.5 22.86C85.5 23.5 85.44 24.16 85.33 24.85C85.24 25.52 85.03 26.17 84.71 26.8C84.4 27.4 83.96 27.96 83.36 28.45C82.79 28.93 82.02 29.32 81.06 29.6C80.12 29.89 78.94 30.04 77.53 30.04L70 30.04ZM74.15 28.09L77.1 28.09C79.15 28.09 80.61 27.69 81.49 26.89C82.37 26.09 82.81 24.8 82.81 23.03L82.81 22.6C82.81 21.35 82.64 20.36 82.28 19.64C81.93 18.91 81.34 18.39 80.51 18.08C79.68 17.76 78.54 17.6 77.1 17.6L74.15 17.6C73.68 17.6 73.4 17.64 73.31 17.7C73.23 17.75 73.19 17.94 73.19 18.28L73.19 27.37C73.19 27.72 73.23 27.93 73.31 28C73.4 28.06 73.68 28.09 74.15 28.09ZM89.15 16.5C88.68 16.5 88.32 16.37 88.07 16.12C87.81 15.84 87.68 15.53 87.68 15.18C87.68 14.81 87.8 14.5 88.04 14.24C88.3 13.99 88.67 13.86 89.15 13.86C89.63 13.86 89.99 13.99 90.23 14.24C90.48 14.5 90.61 14.81 90.61 15.18C90.61 15.53 90.48 15.84 90.23 16.12C89.97 16.37 89.61 16.5 89.15 16.5ZM87.68 30.04C87.79 30.04 87.9 29.92 87.99 29.7C88.11 29.48 88.16 29.11 88.16 28.6L88.16 20.24C88.16 19.73 88.11 19.37 87.99 19.16C87.9 18.94 87.79 18.82 87.68 18.8L90.61 18.8L90.61 28.6C90.61 29.11 90.66 29.48 90.75 29.7C90.87 29.92 90.98 30.04 91.09 30.04L87.68 30.04ZM99 35.89C97.61 35.89 96.39 35.75 95.35 35.48C94.31 35.21 93.57 34.95 93.12 34.69L93.6 32.53L93.6 31.84C93.82 32.17 94.18 32.52 94.66 32.89C95.14 33.26 95.74 33.57 96.46 33.83C97.18 34.08 97.99 34.21 98.9 34.21C99.98 34.21 100.77 34.04 101.28 33.68C101.81 33.33 102.15 32.84 102.31 32.22C102.49 31.6 102.58 30.88 102.58 30.08L102.58 29.2L102.62 28.76L102.58 28.72C102.26 29.12 101.76 29.48 101.09 29.8C100.43 30.12 99.62 30.28 98.66 30.28C97.14 30.28 95.96 30.02 95.11 29.51C94.28 29 93.7 28.3 93.36 27.42C93.04 26.54 92.88 25.55 92.88 24.44C92.88 23.32 93.04 22.32 93.36 21.44C93.7 20.56 94.28 19.87 95.11 19.36C95.96 18.83 97.14 18.56 98.66 18.56C99.62 18.56 100.42 18.69 101.06 18.95C101.7 19.2 102.21 19.53 102.58 19.93L102.62 19.91L102.58 19.45L102.58 18.8L105.5 18.8C105.39 18.82 105.28 18.94 105.17 19.16C105.07 19.39 105.02 19.76 105.02 20.29L105.02 29.48C105.02 31.8 104.53 33.45 103.54 34.43C102.56 35.4 101.05 35.89 99 35.89ZM98.83 28.57C99.82 28.57 100.59 28.42 101.14 28.12C101.68 27.8 102.06 27.33 102.26 26.72C102.47 26.1 102.58 25.34 102.58 24.44C102.58 23.56 102.46 22.81 102.24 22.19C102.03 21.56 101.66 21.08 101.11 20.75C100.58 20.41 99.82 20.24 98.83 20.24C97.49 20.24 96.56 20.63 96.05 21.4C95.55 22.16 95.3 23.19 95.3 24.47C95.3 25.75 95.55 26.76 96.05 27.49C96.54 28.21 97.47 28.57 98.83 28.57ZM109.28 16.5C108.82 16.5 108.46 16.37 108.2 16.12C107.94 15.84 107.82 15.53 107.82 15.18C107.82 14.81 107.94 14.5 108.18 14.24C108.43 13.99 108.8 13.86 109.28 13.86C109.76 13.86 110.12 13.99 110.36 14.24C110.62 14.5 110.74 14.81 110.74 15.18C110.74 15.53 110.62 15.84 110.36 16.12C110.1 16.37 109.74 16.5 109.28 16.5ZM107.82 30.04C107.93 30.04 108.03 29.92 108.13 29.7C108.24 29.48 108.3 29.11 108.3 28.6L108.3 20.24C108.3 19.73 108.24 19.37 108.13 19.16C108.03 18.94 107.93 18.82 107.82 18.8L110.74 18.8L110.74 28.6C110.74 29.11 110.79 29.48 110.89 29.7C111 29.92 111.11 30.04 111.22 30.04L107.82 30.04ZM117.96 30.28C116.85 30.28 116.05 30.04 115.56 29.58C115.06 29.1 114.81 28.32 114.81 27.25L114.81 20.48L112.65 20.48L112.65 18.8C113.39 18.8 113.96 18.71 114.38 18.54C114.8 18.35 115.09 18.02 115.27 17.56C115.44 17.09 115.53 16.44 115.53 15.61L117.26 15.61L117.26 18.8L121.84 18.8C121.73 18.96 121.62 19.2 121.51 19.52C121.41 19.83 121.36 20.15 121.36 20.48L117.26 20.48L117.26 26.89C117.26 27.63 117.4 28.09 117.67 28.28C117.94 28.48 118.28 28.57 118.7 28.57C119.29 28.57 119.83 28.4 120.31 28.04C120.79 27.69 121.13 27.35 121.34 27.01L121.34 27.76L121.58 29.12C121.34 29.38 120.91 29.64 120.28 29.89C119.66 30.15 118.88 30.28 117.96 30.28ZM127.77 30.28C126.03 30.28 124.81 29.96 124.1 29.34C123.4 28.7 123.05 27.84 123.05 26.77C123.05 25.65 123.47 24.77 124.32 24.13C125.17 23.49 126.46 23.17 128.21 23.17C129.45 23.17 130.45 23.3 131.21 23.56C131.96 23.8 132.46 24 132.72 24.18C132.7 22.76 132.43 21.75 131.9 21.16C131.39 20.55 130.48 20.24 129.17 20.24C128.22 20.24 127.37 20.36 126.62 20.58C125.89 20.79 125.29 21.02 124.85 21.28C124.4 21.52 124.12 21.69 124.01 21.8L124.01 21.32L123.77 19.52C123.91 19.46 124.22 19.36 124.7 19.21C125.18 19.05 125.81 18.91 126.6 18.78C127.38 18.64 128.3 18.56 129.36 18.56C131.37 18.56 132.85 19 133.77 19.86C134.7 20.71 135.17 22.02 135.17 23.8L135.17 28.6C135.17 29.04 135.21 29.37 135.31 29.58C135.42 29.77 135.53 29.92 135.65 30.04L132.72 30.04L132.72 29.32L132.77 28.86L132.72 28.84C132.19 29.32 131.5 29.68 130.65 29.92C129.81 30.16 128.85 30.28 127.77 30.28ZM128.57 28.57C129.86 28.57 130.88 28.39 131.61 28.02C132.35 27.64 132.72 27.16 132.72 26.58C132.72 26.1 132.4 25.69 131.76 25.36C131.13 25.02 130.16 24.85 128.83 24.85C127.6 24.85 126.73 25.01 126.21 25.33C125.72 25.65 125.47 26.13 125.47 26.77C125.47 27.4 125.71 27.85 126.19 28.14C126.69 28.43 127.48 28.57 128.57 28.57ZM138.06 30.04C138.17 30.04 138.28 29.92 138.39 29.7C138.51 29.48 138.56 29.11 138.56 28.6L138.56 17.08C138.56 16.56 138.51 16.2 138.39 16C138.28 15.77 138.17 15.65 138.06 15.64L141.75 15.64C141.64 15.64 141.53 15.75 141.42 15.97C141.31 16.2 141.25 16.57 141.25 17.1L141.25 27.35C141.25 27.7 141.29 27.92 141.37 28C141.47 28.06 141.75 28.09 142.23 28.09L148.31 28.09C149.23 28.09 149.98 27.99 150.54 27.78C151.11 27.56 151.49 27.34 151.67 27.13L151.19 29.53L151.19 30.04L138.06 30.04ZM159.1 30.04C159.22 30.04 159.33 29.92 159.44 29.7C159.55 29.48 159.61 29.11 159.61 28.6L159.61 17.08C159.61 16.56 159.55 16.2 159.44 16C159.33 15.77 159.22 15.65 159.1 15.64L172.62 15.64L172.62 16.12L173.1 18.42C172.7 18.24 171.99 18.06 170.98 17.87C169.98 17.66 168.76 17.56 167.34 17.56L163.28 17.56C162.8 17.56 162.51 17.6 162.42 17.68C162.34 17.74 162.3 17.94 162.3 18.28L162.3 21.01C162.3 21.36 162.34 21.57 162.42 21.64C162.51 21.7 162.79 21.73 163.26 21.73L167.22 21.73C168.14 21.73 168.89 21.68 169.45 21.59C170.02 21.48 170.4 21.36 170.58 21.25C170.46 21.56 170.35 21.95 170.24 22.43C170.14 22.89 170.1 23.3 170.1 23.65L163.26 23.65C162.79 23.65 162.51 23.68 162.42 23.75C162.34 23.8 162.3 24 162.3 24.37L162.3 28.6C162.3 29.12 162.35 29.5 162.46 29.72C162.58 29.93 162.69 30.04 162.8 30.04L159.1 30.04ZM174.78 30.04C174.89 30.04 174.99 29.92 175.09 29.7C175.2 29.48 175.26 29.11 175.26 28.6L175.26 14.92C175.26 14.4 175.2 14.04 175.09 13.84C174.99 13.61 174.89 13.49 174.78 13.48C175.48 13.48 176.09 13.43 176.6 13.33C177.13 13.22 177.5 13.11 177.71 13L177.71 28.6C177.71 29.11 177.75 29.48 177.85 29.7C177.96 29.92 178.07 30.04 178.19 30.04L174.78 30.04ZM186.42 30.28C184.82 30.28 183.57 30.02 182.66 29.51C181.76 29 181.13 28.3 180.76 27.42C180.41 26.54 180.23 25.55 180.23 24.44C180.23 23.32 180.42 22.32 180.78 21.44C181.17 20.56 181.81 19.87 182.7 19.36C183.6 18.83 184.84 18.56 186.42 18.56C188.01 18.56 189.25 18.83 190.14 19.36C191.04 19.87 191.67 20.56 192.04 21.44C192.42 22.32 192.62 23.32 192.62 24.44C192.62 25.55 192.43 26.54 192.06 27.42C191.71 28.3 191.09 29 190.19 29.51C189.3 30.02 188.04 30.28 186.42 30.28ZM186.42 28.57C187.42 28.57 188.18 28.41 188.73 28.09C189.27 27.77 189.65 27.31 189.86 26.7C190.06 26.08 190.17 25.32 190.17 24.44C190.17 23.56 190.06 22.81 189.83 22.19C189.62 21.56 189.25 21.08 188.7 20.75C188.18 20.41 187.42 20.24 186.42 20.24C185.45 20.24 184.69 20.42 184.14 20.77C183.6 21.11 183.22 21.6 182.99 22.24C182.78 22.86 182.68 23.6 182.68 24.47C182.68 25.32 182.78 26.05 182.99 26.68C183.2 27.28 183.58 27.76 184.12 28.09C184.66 28.41 185.43 28.57 186.42 28.57ZM197.65 30.04C197.76 30.04 197.83 29.93 197.86 29.72C197.91 29.5 197.84 29.12 197.65 28.6C197.57 28.39 197.42 28.02 197.19 27.49C196.97 26.96 196.7 26.36 196.4 25.67C196.11 24.96 195.81 24.26 195.49 23.56C195.17 22.84 194.87 22.19 194.6 21.61C194.33 21.02 194.11 20.58 193.95 20.29C193.68 19.78 193.43 19.41 193.21 19.19C192.98 18.95 192.82 18.82 192.73 18.8L196.64 18.8C196.5 18.8 196.4 18.92 196.35 19.14C196.3 19.36 196.4 19.75 196.64 20.29C196.77 20.56 196.94 20.98 197.17 21.54C197.39 22.08 197.64 22.72 197.91 23.44C198.2 24.14 198.49 24.86 198.78 25.6C199.06 26.33 199.33 27.02 199.57 27.66L199.59 27.66C199.83 27 200.09 26.31 200.36 25.57C200.63 24.82 200.9 24.08 201.15 23.36C201.42 22.64 201.66 22.01 201.87 21.47C202.08 20.91 202.24 20.5 202.35 20.24C202.58 19.73 202.66 19.36 202.62 19.14C202.57 18.92 202.48 18.8 202.35 18.8L206.19 18.8C206.05 18.8 205.95 18.92 205.9 19.14C205.86 19.36 205.95 19.75 206.19 20.29C206.32 20.56 206.49 20.98 206.7 21.54C206.92 22.08 207.16 22.72 207.42 23.44C207.69 24.14 207.96 24.86 208.23 25.6C208.5 26.33 208.75 27.02 208.98 27.66L209 27.66C209.27 27 209.56 26.31 209.86 25.57C210.17 24.82 210.47 24.08 210.78 23.36C211.08 22.64 211.34 22.01 211.57 21.47C211.81 20.91 211.98 20.5 212.1 20.24C212.32 19.73 212.41 19.36 212.36 19.14C212.31 18.92 212.22 18.8 212.1 18.8L215.86 18.8C215.77 18.8 215.62 18.92 215.41 19.14C215.22 19.35 214.99 19.71 214.74 20.22C214.59 20.49 214.38 20.91 214.11 21.47C213.84 22.03 213.54 22.66 213.2 23.36C212.86 24.05 212.54 24.74 212.22 25.43C211.9 26.12 211.62 26.75 211.38 27.32C211.14 27.88 210.98 28.31 210.9 28.6C210.75 29.12 210.7 29.5 210.73 29.72C210.76 29.93 210.82 30.04 210.9 30.04L207.06 30.04C207.17 30.04 207.24 29.93 207.27 29.72C207.32 29.5 207.25 29.12 207.06 28.6C207.01 28.45 206.89 28.12 206.7 27.61C206.5 27.1 206.27 26.48 206 25.76C205.73 25.03 205.45 24.27 205.16 23.48C204.87 22.7 204.59 21.96 204.32 21.25L204.25 21.25C203.99 21.92 203.71 22.64 203.41 23.41C203.1 24.16 202.82 24.9 202.54 25.62C202.27 26.32 202.04 26.95 201.85 27.49C201.66 28.02 201.54 28.39 201.49 28.6C201.34 29.12 201.29 29.5 201.32 29.72C201.35 29.93 201.41 30.04 201.49 30.04L197.65 30.04Z" fill="#000000" fill-opacity="1.000000" fill-rule="nonzero"/>
</svg>
